<?xml version="1.0" standalone="no"?>
<!DOCTYPE svg PUBLIC "-//W3C//DTD SVG 20010904//EN"
 "http://www.w3.org/TR/2001/REC-SVG-20010904/DTD/svg10.dtd">
<svg version="1.0" xmlns="http://www.w3.org/2000/svg"
 width="311.000000pt" height="162.000000pt" viewBox="0 0 311.000000 162.000000"
 preserveAspectRatio="xMidYMid meet">
<metadata>
Created by potrace 1.16, written by Peter Selinger 2001-2019
</metadata>
<g transform="translate(0.000000,162.000000) scale(0.100000,-0.100000)"
fill="#000000" stroke="none">
<path d="M10 1429 l0 -178 26 24 c30 28 49 33 40 9 -3 -8 -2 -12 3 -9 5 3 13
0 16 -6 4 -5 13 -8 21 -5 8 3 11 0 8 -8 -3 -8 -1 -17 4 -20 6 -3 12 0 15 7 3
9 16 12 36 9 17 -2 28 -8 25 -13 -3 -5 0 -9 5 -9 6 0 11 -7 11 -16 0 -9 8 -23
18 -31 9 -8 11 -12 5 -8 -8 4 -13 0 -13 -9 0 -9 4 -16 10 -16 5 0 18 -10 29
-22 18 -19 21 -19 27 -4 3 9 1 23 -6 31 -6 8 -9 23 -5 34 4 15 3 19 -7 16 -21
-8 -40 52 -25 76 17 27 29 24 50 -12 12 -23 23 -30 37 -26 11 3 21 -1 24 -10
9 -22 8 -23 -24 -23 -23 0 -31 5 -36 25 -3 14 -10 25 -16 25 -5 0 -6 6 -2 13
5 8 2 7 -9 -2 -17 -13 -16 -15 4 -37 13 -14 19 -30 15 -39 -3 -9 1 -29 11 -45
20 -34 46 -30 37 6 -5 18 -2 24 10 24 9 0 16 -7 16 -15 0 -8 7 -15 16 -15 14
0 14 1 0 16 -9 8 -13 21 -9 27 4 7 7 23 5 37 -1 14 1 20 4 14 3 -7 14 -10 24
-7 11 3 18 9 15 13 -6 10 45 44 53 35 4 -3 0 -10 -7 -14 -9 -6 -7 -10 11 -15
12 -3 31 -18 41 -32 18 -24 18 -26 1 -38 -12 -9 -14 -15 -6 -20 7 -4 12 -2 12
3 0 6 4 11 8 11 5 0 9 -7 9 -15 0 -8 -7 -15 -14 -15 -9 0 -12 -7 -9 -17 3 -10
1 -25 -4 -33 -5 -8 -10 -12 -10 -8 0 3 -14 -7 -31 -23 l-31 -29 -20 39 c-22
45 -45 68 -56 56 -4 -4 3 -14 16 -22 35 -24 26 -35 -12 -14 -19 11 -42 18 -52
17 -24 -4 -30 -40 -10 -67 13 -20 12 -26 -15 -76 -28 -52 -29 -56 -13 -74 19
-21 13 -24 -18 -8 -13 7 -23 8 -27 1 -9 -14 -71 -26 -71 -13 0 6 8 11 19 11
10 0 24 7 31 15 10 13 10 19 -4 34 -9 10 -25 35 -36 55 l-18 37 24 11 c29 14
30 19 3 42 -16 13 -19 24 -15 44 15 60 13 87 -5 104 -17 17 -18 16 -16 -44 1
-40 -2 -63 -10 -65 -7 -3 -11 3 -9 14 5 26 -12 65 -25 58 -5 -4 -9 -23 -7 -44
3 -33 1 -36 -21 -33 -31 3 -30 2 -37 43 l-6 34 17 -23 c23 -32 45 -14 26 22
-10 17 -10 29 -3 42 10 18 11 17 21 -6 9 -23 10 -23 10 -4 1 25 -21 38 -38 21
-8 -8 -11 -7 -11 6 0 9 -5 17 -11 17 -5 0 -8 -4 -5 -9 8 -13 -4 -42 -15 -35
-5 3 -6 -1 -3 -9 3 -8 1 -18 -5 -22 -7 -4 -11 -72 -11 -196 l0 -189 305 0 305
0 0 400 c0 220 -3 400 -6 400 -4 0 -12 -7 -18 -16 -12 -16 -50 -9 -40 7 3 6
-101 9 -270 8 l-276 -2 0 -178z m256 104 c28 -5 59 -6 70 -3 23 8 38 -6 48
-43 8 -35 29 -43 78 -30 36 10 38 9 38 -13 0 -36 -11 -54 -32 -54 -15 0 -18
-5 -13 -21 6 -18 5 -19 -13 -10 -13 7 -30 8 -44 3 -13 -5 -36 -8 -53 -6 -81 6
-132 6 -152 0 -17 -6 -23 -3 -23 9 0 12 11 15 55 14 30 -1 58 1 62 4 3 4 -1 7
-11 7 -13 0 -16 7 -13 35 2 19 0 32 -4 29 -5 -3 -9 -18 -9 -35 0 -39 -29 -40
-31 -1 l-2 27 -4 -27 c-4 -24 -9 -28 -38 -28 -30 0 -33 3 -37 35 -3 31 -1 35
18 35 20 0 21 3 14 34 -4 19 -6 37 -3 40 2 2 6 12 8 23 2 10 4 20 4 22 1 2 9
-5 19 -16 9 -11 40 -24 68 -30z"/>
<path d="M1297 1598 c2 -5 -1 -8 -8 -8 -8 0 -8 -5 2 -17 7 -10 10 -15 5 -11
-13 11 -39 -21 -31 -39 5 -15 7 -15 15 -3 15 24 25 2 27 -58 1 -31 13 -87 26
-124 13 -37 22 -70 19 -73 -3 -3 -17 -5 -31 -6 -14 0 -20 -3 -13 -6 15 -6 6
-23 -14 -23 -8 0 -14 7 -14 15 0 23 -17 18 -24 -7 -9 -35 -7 -191 3 -207 6
-10 19 -12 42 -7 l33 6 -23 -21 -23 -22 38 -18 c22 -10 33 -18 26 -19 -7 0
-11 -3 -9 -7 3 -5 -19 -9 -49 -10 l-54 -3 -1 48 c0 26 -3 41 -6 35 -8 -22 -33
-14 -33 10 0 13 -6 29 -12 35 -10 10 -10 15 -1 20 12 7 33 54 33 73 0 5 -6 4
-14 -3 -8 -7 -12 -17 -9 -21 5 -9 -15 -37 -28 -37 -5 0 -6 7 -3 15 4 8 9 13
13 11 3 -2 6 15 6 37 1 23 4 54 9 70 6 18 5 27 -4 27 -6 0 -9 -4 -6 -9 3 -5 1
-23 -5 -41 -9 -23 -14 -28 -20 -18 -7 10 -9 10 -9 -2 0 -13 -1 -13 -10 0 -6
10 -10 11 -10 3 0 -8 -13 -13 -30 -13 l-29 0 14 40 c8 22 10 40 6 40 -5 0 -11
-12 -14 -27 -9 -39 -22 -56 -40 -51 -13 3 -14 8 -2 41 7 20 9 37 4 37 -5 0 -9
-7 -9 -15 0 -8 -3 -14 -7 -14 -20 3 -27 -2 -14 -10 17 -11 7 -41 -14 -41 -19
0 -19 27 0 64 13 25 13 28 -1 22 -9 -3 -20 -6 -25 -6 -5 0 -9 -5 -9 -11 0 -5
5 -7 10 -4 13 8 13 -7 -1 -42 -8 -22 -12 -24 -19 -13 -7 10 -10 11 -10 3 0 -7
-4 -13 -10 -13 -5 0 -3 19 5 41 18 51 19 64 3 81 -41 44 -46 118 -12 152 16
17 19 76 4 76 -5 0 -10 -5 -10 -11 0 -6 -14 -8 -37 -4 -47 7 -51 12 -30 32 14
15 22 15 47 6 31 -11 40 -3 18 14 -30 24 -66 23 -94 0 l-27 -24 13 -76 c10
-62 10 -80 0 -92 -14 -16 -11 -22 43 -79 15 -16 27 -33 27 -37 0 -5 7 -6 16
-2 12 4 15 2 12 -8 -3 -8 -12 -13 -19 -11 -11 3 -11 1 -3 -8 17 -17 5 -50 -18
-50 -12 0 -18 5 -15 13 2 6 10 11 17 9 8 -2 10 3 6 13 -3 9 -6 22 -6 28 -1 7
-7 -3 -15 -20 -8 -18 -21 -33 -29 -33 -15 0 -16 16 -3 37 4 7 2 22 -5 35 -7
13 -13 24 -14 26 0 1 -20 -5 -44 -13 -23 -8 -44 -15 -45 -15 -1 0 -2 16 -1 36
1 27 7 39 26 49 14 8 20 14 14 15 -6 0 -26 -10 -45 -23 -34 -23 -34 -24 -33
-95 1 -46 8 -81 17 -96 9 -13 19 -40 22 -60 4 -20 11 -39 16 -42 5 -3 9 -14 9
-25 0 -12 7 -19 18 -19 10 0 22 -3 25 -6 9 -10 109 -43 128 -44 9 0 19 -6 22
-13 4 -11 -6 -13 -46 -11 -49 3 -48 3 18 -11 39 -7 82 -17 98 -20 16 -5 33 -3
42 5 19 16 47 5 44 -17 -4 -41 2 -63 16 -63 17 0 19 18 6 53 -14 37 0 49 33
28 15 -10 36 -16 47 -14 15 4 10 11 -29 36 -75 49 -102 82 -102 123 0 35 1 35
38 32 28 -2 37 -7 36 -20 -1 -10 5 -18 13 -18 13 0 13 -2 2 -17 -12 -15 -12
-16 3 -10 13 4 15 2 11 -10 -3 -9 0 -21 8 -27 8 -6 20 -23 26 -38 7 -16 17
-28 23 -28 6 0 6 -9 -1 -26 -5 -15 -7 -29 -4 -32 10 -10 24 13 28 48 3 25 4
19 5 -21 l2 -57 413 -1 c274 -1 407 2 397 9 -9 6 -10 10 -3 10 6 0 15 -4 18
-10 3 -5 18 -10 33 -10 25 1 24 2 -13 20 -22 11 -50 19 -62 20 -27 0 -27 -3
-8 50 18 50 18 53 6 45 -5 -3 -12 3 -15 12 -3 10 -4 6 -2 -9 2 -17 -4 -34 -15
-44 -11 -10 -19 -23 -19 -31 0 -7 -4 -13 -10 -13 -10 0 -32 35 -25 42 2 2 -11
2 -30 0 -29 -4 -34 -8 -38 -36 -3 -22 -4 -18 -5 17 -2 50 -3 50 -60 47 -18 -1
-40 4 -48 10 -9 8 -14 9 -14 2 0 -10 -37 -8 -48 2 -12 12 55 27 88 20 19 -5
40 -8 45 -8 6 -1 13 -5 17 -10 11 -16 18 75 14 184 -5 145 -5 142 -15 136 -5
-3 -12 1 -15 10 -3 8 -11 14 -18 12 -7 -1 -30 4 -51 12 -29 11 -36 18 -31 33
3 10 0 25 -7 33 -10 12 -10 17 0 23 9 6 8 11 -5 22 -9 7 -20 22 -24 34 -8 19
-9 19 -9 -3 -1 -13 4 -32 10 -43 9 -18 7 -19 -15 -13 -24 6 -26 3 -26 -26 0
-17 -5 -40 -10 -51 -12 -22 -35 -26 -26 -4 8 21 -10 19 -34 -5 -26 -26 -64
-25 -84 3 -13 16 -16 17 -12 4 3 -10 2 -16 -2 -13 -5 3 -9 23 -10 45 -2 35 2
43 27 56 16 8 32 23 34 32 4 14 5 13 6 -4 1 -17 7 -23 24 -23 31 -1 61 -26 53
-45 -4 -11 -2 -15 6 -13 7 3 15 17 16 33 2 16 10 38 18 49 8 11 14 32 14 47 0
33 9 42 27 27 11 -9 15 -7 20 10 3 12 11 22 19 22 7 0 16 11 20 25 5 21 11 24
44 21 33 -3 37 -1 33 15 -5 18 -18 19 -209 19 -173 0 -204 -2 -204 -15 0 -9
-6 -12 -16 -8 -13 5 -13 7 -2 14 8 6 0 9 -24 9 -21 0 -38 -4 -38 -10 0 -5 -8
-10 -17 -10 -15 0 -15 2 -4 9 10 7 7 9 -12 8 -14 -1 -23 -5 -20 -9z m330 -466
c4 -9 13 -23 20 -30 7 -8 11 -18 8 -23 -4 -5 4 -10 17 -10 l23 -2 -23 -4 c-12
-2 -20 -8 -18 -12 3 -4 -6 -8 -20 -9 -24 -2 -35 23 -13 30 5 2 7 11 4 21 -4 9
-11 14 -16 11 -5 -3 -9 2 -9 10 0 23 -16 19 -34 -9 -20 -30 -20 -45 -1 -45 8
0 15 -9 15 -20 0 -21 -16 -26 -40 -10 -9 6 -17 5 -22 -3 -5 -8 -10 -9 -15 -2
-5 6 -15 10 -23 9 -8 0 -27 -2 -42 -2 -15 -1 -34 -9 -42 -18 -9 -8 -16 -11
-16 -6 0 5 -10 14 -22 20 -21 9 -18 11 22 12 25 1 50 3 55 5 6 1 21 3 35 5 17
2 10 5 -19 9 -42 6 -44 7 -28 23 9 9 17 21 17 26 0 5 17 6 41 2 31 -6 42 -4
46 7 12 30 90 42 100 15z m-692 -22 c-3 -6 -30 -8 -58 -6 -29 2 -41 1 -27 -1
14 -3 30 -9 37 -15 7 -5 17 -7 22 -3 17 10 66 -21 81 -52 8 -15 27 -43 44 -60
l30 -33 -32 0 c-19 0 -40 8 -52 20 -11 11 -29 20 -40 20 -11 0 -20 5 -20 10 0
6 -3 9 -7 9 -21 -3 -33 2 -33 15 0 8 -8 17 -17 22 -15 6 -13 8 12 14 30 8 30
8 3 9 -14 0 -35 4 -45 8 -16 6 -15 8 7 14 23 6 23 7 -7 8 -22 1 -33 6 -33 16
0 12 15 15 71 15 44 0 68 -4 64 -10z"/>
<path d="M2490 1547 c0 -35 3 -67 7 -71 4 -4 6 -24 5 -44 -2 -20 2 -48 8 -62
9 -22 10 -23 6 -2 -5 26 -3 27 18 6 15 -14 16 -14 16 0 0 9 4 16 9 16 6 0 13
20 16 44 5 32 11 43 21 39 8 -3 14 0 14 6 0 6 7 8 15 5 8 -4 15 -12 15 -19 0
-19 51 -29 62 -13 7 9 8 8 4 -4 -4 -14 1 -18 23 -18 16 0 34 7 41 15 7 8 22
16 34 16 18 1 18 2 3 6 -11 3 -16 11 -13 19 3 7 1 16 -4 19 -15 9 -12 22 4 22
8 0 15 -3 14 -6 -2 -21 3 -41 11 -41 5 0 7 10 4 23 l-5 22 16 -22 c17 -23 56
-32 56 -13 0 6 -11 10 -25 10 -24 0 -24 0 -8 28 17 29 60 39 75 17 4 -6 12 -4
20 6 17 22 62 33 54 14 -4 -11 0 -12 19 -5 16 6 25 6 25 0 0 -5 -18 -15 -40
-21 -22 -7 -39 -16 -38 -21 2 -5 6 -8 9 -6 3 2 17 -5 31 -14 20 -13 28 -14 31
-5 3 6 6 2 6 -10 1 -13 5 -23 10 -23 6 0 9 -11 8 -24 -1 -14 3 -24 8 -23 6 1
13 -18 16 -43 3 -26 7 16 7 98 l2 142 -305 0 -305 0 0 -63z"/>
<path d="M1980 1335 c-7 -8 -16 -13 -20 -10 -5 3 -11 -4 -15 -15 -3 -11 -12
-20 -18 -20 -9 0 -9 -2 -1 -8 7 -4 9 -21 6 -40 -4 -27 -8 -33 -24 -29 -14 4
-18 2 -14 -10 3 -8 6 -17 6 -19 0 -2 7 -4 15 -4 8 0 15 -2 15 -4 0 -11 -30
-60 -42 -67 -10 -6 -8 -9 6 -9 11 0 16 -3 13 -6 -11 -11 11 -41 33 -47 17 -4
19 -3 10 8 -6 7 -8 21 -4 31 5 16 4 16 -5 4 -9 -13 -11 -13 -11 3 0 9 6 17 13
17 9 0 8 3 -2 9 -7 5 -10 14 -7 20 12 18 43 12 49 -9 6 -25 27 -27 27 -2 0 14
2 15 10 2 8 -13 9 -13 14 0 8 27 19 94 21 137 4 63 -43 106 -75 68z"/>
<path d="M2320 1204 c0 -14 -5 -34 -11 -45 -10 -20 -10 -20 -46 1 -28 16 -34
17 -30 5 4 -8 2 -15 -2 -15 -5 0 -11 6 -14 13 -3 9 -8 9 -21 -2 -24 -20 -42
-1 -26 29 6 12 9 24 6 28 -3 3 -6 0 -6 -7 0 -8 -8 -11 -20 -8 -11 3 -20 1 -20
-4 0 -5 8 -9 18 -10 10 0 3 -7 -17 -15 -25 -12 -36 -12 -41 -4 -9 15 -16 5
-25 -37 -6 -28 -11 -33 -36 -33 -16 0 -29 -4 -29 -10 0 -5 7 -7 15 -4 8 4 15
1 15 -5 0 -6 6 -11 13 -11 8 0 12 -16 12 -46 0 -35 4 -48 16 -49 16 -3 17 0
23 49 3 29 25 50 41 38 17 -12 39 -62 31 -69 -4 -4 -16 -2 -26 5 -24 14 -33
15 -25 3 3 -5 1 -12 -5 -16 -17 -11 -11 -23 16 -29 14 -4 32 -2 40 4 7 7 18 8
25 4 9 -5 10 6 5 45 -7 50 -6 51 14 39 15 -10 20 -23 20 -55 0 -24 1 -43 3
-43 24 4 103 39 105 48 3 18 -29 14 -44 -5 -12 -17 -13 -16 -14 4 0 12 -5 23
-11 25 -6 2 -9 15 -6 28 4 24 5 24 12 4 l7 -21 21 21 c16 17 23 36 24 77 2 30
5 64 8 77 3 12 1 22 -5 22 -5 0 -10 -12 -10 -26z"/>
<path d="M2706 1095 c4 -8 1 -21 -5 -29 -6 -7 -8 -15 -5 -19 3 -3 3 -15 -1
-27 -5 -17 -9 -19 -21 -9 -11 9 -17 9 -25 1 -5 -7 -6 -10 -3 -7 14 10 31 -16
27 -38 -3 -14 -16 -27 -33 -34 -35 -13 -39 -10 -35 30 1 18 1 25 -2 16 -2 -10
-25 -21 -59 -29 l-54 -13 0 -64 0 -63 305 0 305 0 0 145 0 144 -47 -14 c-31
-9 -51 -11 -59 -4 -18 15 -43 1 -37 -22 4 -14 8 -17 13 -9 5 8 10 9 14 2 9
-16 -14 -26 -79 -37 -11 -2 -20 -4 -20 -5 0 -1 -11 -3 -23 -4 -20 -2 -23 1
-19 21 2 12 0 23 -4 23 -5 0 -9 -13 -9 -29 0 -22 -6 -30 -24 -35 -14 -3 -33
-3 -43 0 -15 5 -15 4 -3 -5 16 -11 15 -11 -40 -16 -8 0 -21 -4 -28 -8 -15 -10
-16 7 -1 35 11 20 13 20 24 5 12 -16 13 -16 18 3 6 25 44 27 50 3 4 -14 5 -13
6 3 0 12 8 24 16 28 17 6 20 32 5 41 -5 3 -18 -3 -29 -14 -11 -11 -32 -23 -47
-27 -23 -6 -25 -4 -20 14 15 45 15 62 1 62 -9 0 -12 -6 -9 -15z"/>
<path d="M635 927 c-6 -50 -5 -60 11 -73 17 -14 17 -15 2 -10 -13 4 -18 0 -18
-14 0 -13 6 -18 20 -17 11 1 20 4 20 7 0 4 7 7 15 7 8 0 15 -4 15 -8 0 -4 72
-8 159 -8 158 -2 160 -1 158 20 -1 12 -9 24 -19 27 -10 2 -15 8 -12 13 6 10
-22 17 -101 24 -33 3 -68 7 -77 8 -21 2 -13 17 9 17 22 0 14 6 -19 14 -24 5
-28 3 -28 -14 0 -17 -5 -19 -32 -16 -51 7 -64 15 -80 49 l-16 32 -7 -58z"/>
<path d="M330 791 c0 -5 -12 -23 -26 -40 -46 -55 3 -105 63 -66 18 12 28 14
31 7 2 -7 13 -12 25 -12 12 0 29 -6 38 -13 19 -15 31 -77 13 -70 -6 2 -14 -3
-18 -12 -3 -10 -13 -15 -20 -12 -8 3 -16 1 -18 -5 -5 -14 14 -58 25 -58 4 0 7
-6 7 -14 0 -7 -26 -22 -62 -34 -58 -18 -63 -19 -75 -3 -18 23 -12 45 14 49 12
2 24 10 27 19 5 13 4 14 -9 3 -17 -15 -19 -7 -5 21 10 18 3 25 -23 20 -5 -1
-6 3 -3 8 7 11 -14 61 -26 61 -4 0 -8 -4 -8 -10 0 -5 -9 -10 -20 -10 -11 0
-20 -4 -20 -10 0 -5 -7 -7 -14 -4 -10 4 -20 -6 -30 -30 -16 -39 -32 -46 -40
-18 -3 9 -4 -2 -3 -25 1 -23 -1 -39 -5 -37 -18 12 -6 -27 18 -55 14 -17 21
-31 15 -31 -14 0 -14 -67 0 -76 6 -3 24 6 40 22 30 29 36 27 18 -7 -13 -26 -2
-99 16 -99 8 0 11 7 8 19 -7 27 15 30 72 9 49 -18 50 -18 12 -15 l-37 3 27
-24 28 -23 -29 6 c-24 5 -27 3 -22 -10 3 -9 0 -25 -7 -35 -12 -17 -14 -17 -34
5 -23 26 -20 35 11 35 14 0 17 3 9 11 -17 17 -47 6 -54 -21 -4 -16 -7 -18 -8
-8 -1 17 -3 17 -38 0 -21 -9 -41 -21 -44 -25 -3 -5 -9 1 -12 12 -8 30 -37 27
-37 -4 0 -22 -33 -92 -49 -105 -3 -3 -6 -11 -6 -19 0 -8 -6 -16 -13 -19 -7 -2
-10 2 -6 12 3 9 1 16 -5 16 -6 0 -11 -16 -11 -35 l0 -35 305 0 305 0 0 135 c0
96 -3 135 -12 135 -6 0 -8 -3 -4 -7 4 -4 -10 -16 -31 -26 l-38 -17 33 5 c20 3
31 1 27 -5 -3 -6 -21 -10 -40 -10 -28 0 -32 -3 -28 -20 6 -24 -9 -26 -28 -4
-11 14 -11 18 1 28 8 6 15 20 15 31 0 16 10 21 53 28 42 7 52 12 52 28 0 22
-13 25 -29 5 -6 -8 -22 -16 -36 -18 -23 -5 -23 -4 -8 19 9 13 21 23 27 22 39
-5 47 1 44 36 -1 19 -6 35 -11 35 -5 0 -3 8 4 17 12 15 12 16 -1 8 -12 -6 -13
-5 -2 6 17 19 15 29 -5 23 -16 -5 -16 -4 -3 8 9 7 17 32 19 56 2 41 1 43 -18
33 -27 -15 -31 -14 -31 7 0 32 -36 65 -62 57 -16 -4 -19 -4 -9 3 8 6 11 17 7
27 -9 24 12 97 27 93 7 -2 20 -21 30 -41 12 -24 26 -37 38 -37 18 0 20 6 17
59 -1 33 -6 57 -10 54 -5 -2 -11 3 -14 11 -5 13 -27 16 -135 16 -72 0 -129 -4
-129 -9z"/>
<path d="M630 774 c0 -25 1 -26 53 -21 45 4 55 1 74 -19 13 -14 31 -23 45 -21
12 1 23 -4 24 -10 1 -7 2 -19 3 -25 4 -21 39 65 40 95 l1 27 -120 0 -120 0 0
-26z"/>
<path d="M1067 788 c-2 -7 -1 -38 4 -68 4 -30 8 -63 8 -72 1 -17 37 -35 49
-23 10 9 10 75 0 75 -4 0 -8 5 -8 10 0 6 10 9 23 7 12 -2 16 -2 10 0 -27 9
-13 30 16 25 24 -3 29 -8 26 -26 -4 -20 -4 -20 10 -2 7 10 18 15 24 11 6 -3
11 -1 11 5 0 6 5 8 13 4 9 -6 9 -4 1 7 -5 8 -9 24 -8 37 1 21 -2 22 -86 22
-61 0 -89 -4 -93 -12z"/>
<path d="M1880 785 c0 -22 47 -42 62 -27 24 24 38 13 38 -28 0 -30 4 -40 16
-40 13 0 14 -3 5 -14 -6 -8 -10 -20 -9 -26 4 -17 -59 -60 -78 -53 -8 3 -14 12
-14 20 0 8 -4 11 -10 8 -14 -9 -12 -55 2 -55 9 0 9 -3 0 -12 -19 -19 -14 -56
8 -70 26 -16 26 -32 0 -25 -16 4 -21 -1 -26 -29 -3 -19 -11 -34 -18 -34 -6 0
-4 -5 4 -9 21 -13 21 -178 0 -191 -12 -8 -12 -10 -1 -10 11 0 11 -3 0 -17 -12
-15 -12 -16 4 -10 9 3 17 2 17 -3 0 -6 10 -10 22 -10 17 0 19 -3 10 -12 -14
-14 -16 -28 -3 -28 5 0 12 9 16 19 7 22 54 34 73 19 8 -8 12 -7 12 3 0 11 25
14 124 14 103 0 127 -3 143 -17 18 -16 19 -16 31 2 14 22 42 27 42 8 -1 -36
-14 -58 -34 -57 -11 0 -84 -2 -160 -6 -103 -4 -142 -2 -147 7 -6 9 -11 8 -24
-2 -12 -10 -18 -11 -24 -2 -4 7 -12 8 -21 2 -8 -6 -25 -10 -37 -10 -19 0 -23
-6 -23 -29 0 -16 -3 -36 -6 -45 -6 -14 27 -16 327 -15 184 0 329 3 322 6 -9 3
-7 11 7 26 11 11 23 17 27 13 4 -4 2 -11 -5 -15 -27 -16 13 -29 92 -30 68 -1
81 2 93 19 18 25 37 27 24 2 -9 -16 2 -18 165 -20 l174 -3 0 25 c0 34 -30 96
-47 96 -17 0 -17 -15 2 -30 8 -7 15 -17 15 -22 0 -6 -15 3 -34 19 -33 27 -48
63 -26 63 6 0 10 -8 10 -17 0 -32 22 3 27 43 3 22 12 51 19 66 14 27 14 28
-14 28 -15 0 -51 -6 -80 -14 -29 -7 -55 -9 -58 -4 -3 4 -9 6 -14 3 -4 -3 -6 3
-3 14 3 11 -2 21 -11 24 -18 7 -22 47 -5 47 6 0 9 9 6 20 -3 11 0 18 7 17 6
-1 10 6 8 17 -3 16 1 17 23 12 53 -13 80 53 30 76 -22 10 -23 13 -10 32 19 26
19 60 0 76 -16 13 -83 10 -185 -9 -30 -6 -84 -13 -119 -17 -69 -7 -81 0 -81
46 1 22 2 23 11 8 5 -10 16 -18 24 -18 8 0 19 8 24 18 9 14 12 14 20 4 14 -22
46 -10 49 19 4 34 -22 57 -43 39 -8 -7 -15 -19 -15 -27 0 -8 -4 -11 -10 -8 -5
3 -10 1 -10 -4 0 -6 -4 -11 -10 -11 -5 0 -10 9 -10 20 0 25 -9 25 -26 3 -12
-16 -13 -13 -14 24 0 49 6 51 150 68 25 3 95 12 155 20 61 8 130 16 155 18
l44 2 9 -48 c6 -32 6 -52 -1 -59 -16 -16 -34 2 -29 28 3 19 0 24 -15 24 -14 0
-18 -5 -14 -16 3 -9 6 -24 6 -35 0 -14 7 -19 29 -19 66 0 43 -38 -28 -47 -28
-3 -54 -10 -58 -16 -4 -7 7 -8 32 -4 l38 6 -7 -46 c-5 -38 -2 -49 18 -74 13
-15 27 -25 30 -21 4 3 4 -2 0 -12 -5 -14 -3 -17 12 -14 18 3 19 14 19 148 0
80 -4 151 -10 159 -7 11 -7 13 3 7 8 -5 12 2 12 23 l0 31 -610 0 c-539 0 -610
-2 -610 -15z m621 -52 c1 -32 3 -50 6 -40 2 9 8 17 12 17 4 0 7 -8 7 -17 0
-10 4 -38 8 -62 6 -29 5 -41 -2 -37 -6 3 -13 -4 -15 -16 -3 -17 -5 -14 -6 10
0 17 -4 32 -8 32 -5 0 -7 -18 -7 -41 1 -22 -2 -52 -6 -67 -5 -16 -9 -20 -9 -9
-1 19 -16 23 -26 7 -5 -8 -11 -7 -21 1 -13 11 -18 6 -15 -15 1 -5 -5 -6 -12
-3 -12 4 -14 -11 -11 -86 2 -73 1 -80 -4 -32 -4 38 -15 72 -29 92 -17 23 -23
45 -23 85 l0 54 -45 22 c-37 18 -45 19 -45 7 0 -8 -4 -15 -9 -15 -5 0 -7 8 -4
19 3 10 -1 22 -9 26 -7 5 -10 5 -6 0 9 -9 -9 -35 -24 -35 -6 0 -8 9 -5 20 3
11 1 18 -4 14 -5 -3 -9 4 -9 15 0 11 5 23 12 27 7 4 8 3 4 -5 -6 -8 0 -11 21
-8 19 3 28 10 28 22 0 10 6 20 14 23 11 4 9 9 -7 21 -21 16 -21 16 16 14 20
-1 37 -2 37 -3 0 -1 13 -3 28 -5 16 -2 35 -9 43 -16 13 -10 12 -15 -4 -33 -11
-12 -22 -37 -26 -57 -5 -31 -2 -42 21 -70 15 -18 26 -41 25 -52 -3 -15 0 -17
16 -8 11 6 22 7 26 4 3 -3 6 1 6 10 0 9 9 26 20 37 11 11 20 28 19 38 0 10 -3
12 -6 5 -9 -23 -31 -13 -47 21 -27 57 -15 79 29 50 19 -12 24 -22 20 -38 -5
-17 -4 -18 4 -6 7 9 9 39 5 78 -4 43 -3 62 5 62 7 0 11 -23 12 -57z m263 -204
c5 -26 10 -31 29 -27 20 4 23 1 19 -19 -3 -17 -10 -22 -28 -21 -13 1 -24 6
-24 10 0 4 -4 8 -10 8 -5 0 -10 -9 -10 -19 0 -21 -47 -38 -63 -22 -15 15 3 33
29 28 19 -3 22 -2 13 9 -6 7 -8 17 -5 22 3 5 -6 7 -19 4 -16 -3 -25 -11 -25
-23 0 -14 -7 -19 -25 -19 -14 0 -28 -1 -32 -2 -5 -2 -9 7 -11 20 -2 12 1 22 7
22 19 0 12 17 -11 27 -20 9 -17 11 27 17 28 4 57 9 65 10 52 12 67 6 74 -25z
m-234 -63 c0 -21 6 -36 16 -40 8 -3 12 -11 9 -17 -4 -5 -1 -24 6 -41 10 -24
10 -33 1 -36 -7 -2 -12 -8 -12 -13 0 -4 7 -6 15 -3 8 4 15 2 15 -4 0 -12 -26
-23 -34 -15 -3 4 -6 15 -6 25 0 22 -28 24 -37 2 -5 -13 -7 -13 -14 -2 -5 7
-16 13 -25 13 -11 0 -18 9 -20 25 -1 14 -5 38 -8 53 -6 27 -5 28 21 25 22 -2
28 1 28 17 0 19 21 44 38 45 4 0 7 -15 7 -34z"/>
<path d="M1560 686 c0 -8 6 -17 13 -19 6 -3 1 -6 -13 -7 -75 -4 -104 -14 -84
-28 5 -4 11 -18 12 -32 1 -17 -2 -20 -7 -11 -18 28 -77 -19 -95 -77 -10 -29 5
-28 38 4 21 21 26 23 26 10 0 -9 -9 -26 -19 -37 -23 -25 -90 -32 -99 -11 -7
20 -23 -8 -16 -29 2 -9 -2 -19 -11 -23 -8 -3 -15 -9 -15 -14 0 -11 59 -13 79
-3 9 5 25 5 36 0 15 -6 16 -8 4 -8 -13 -1 -16 -11 -14 -47 1 -25 7 -49 15 -54
7 -4 10 -12 6 -18 -3 -5 5 -13 18 -16 20 -5 25 -14 28 -41 4 -45 22 -50 26 -7
l3 32 62 2 c34 1 80 1 101 0 22 -2 47 0 55 4 9 4 25 6 36 5 29 -2 41 10 48 49
4 20 3 30 -2 22 -10 -17 -30 77 -21 103 5 15 8 14 23 -9 10 -15 22 -24 27 -21
18 11 9 85 -11 85 -4 0 -6 -7 -3 -15 5 -11 -1 -15 -24 -15 -17 0 -34 5 -37 10
-12 19 -25 10 -25 -16 0 -21 4 -25 18 -22 16 5 19 -1 20 -35 1 -23 -1 -50 -4
-62 -7 -19 -7 -19 -14 -1 -13 39 -119 28 -121 -12 0 -13 -2 -12 -9 5 -9 23
-11 134 -3 166 4 15 7 16 19 6 13 -11 13 -14 0 -21 -33 -19 -13 -55 24 -43 14
4 20 15 20 36 0 16 5 38 12 48 9 15 8 24 -5 45 -11 16 -23 23 -32 20 -24 -10
-18 32 8 52 15 11 16 15 5 11 -10 -4 -18 -2 -18 3 0 6 -9 10 -20 10 -13 0 -20
7 -20 20 0 13 -7 20 -20 20 -11 0 -20 -6 -20 -14z"/>
<path d="M680 610 c0 -18 -38 -50 -44 -37 -3 7 -4 3 -3 -8 2 -11 9 -19 16 -17
7 1 10 -2 6 -8 -4 -6 -1 -18 6 -26 10 -12 9 -16 -9 -21 -18 -4 -22 -12 -20
-46 1 -23 3 -36 6 -29 3 10 7 10 18 1 8 -6 22 -9 32 -7 24 7 38 -10 46 -55 l7
-37 -56 0 -55 0 0 -160 0 -160 305 0 305 0 0 160 0 160 -44 0 c-45 0 -61 15
-50 45 4 8 1 15 -5 15 -6 0 -8 7 -5 15 3 8 -1 28 -9 45 -9 16 -14 30 -12 30
10 0 44 -44 39 -51 -10 -17 40 1 63 22 25 24 33 92 11 105 -6 4 -8 3 -5 -2 3
-6 2 -16 -4 -24 -7 -12 -9 -11 -9 5 0 15 -3 17 -9 7 -6 -10 -10 -9 -14 7 -3
12 -12 21 -21 21 -9 0 -16 5 -16 10 0 6 -9 10 -20 10 -11 0 -23 7 -26 15 -5
12 -10 13 -19 5 -10 -8 -15 -7 -19 7 -3 10 -4 -1 -3 -25 2 -25 -2 -41 -8 -38
-12 4 -45 -12 -45 -22 0 -4 16 -7 35 -7 25 1 35 -3 35 -14 0 -8 12 -32 26 -53
24 -34 27 -77 5 -64 -5 4 -12 0 -14 -6 -3 -7 -6 -4 -6 7 -1 16 -3 17 -11 5 -5
-8 -24 -16 -42 -18 l-33 -4 20 23 c11 12 14 19 8 15 -9 -5 -13 0 -13 14 0 12
-4 18 -10 15 -5 -3 -10 -22 -10 -41 0 -23 -4 -33 -11 -28 -7 4 -9 22 -6 45 4
28 0 43 -14 58 -24 25 -31 27 -22 4 6 -14 3 -14 -20 3 -15 10 -24 25 -22 32 3
7 0 10 -5 7 -18 -11 -11 17 8 31 15 12 15 13 1 14 -9 0 -22 -7 -29 -15 -10
-12 -9 -20 5 -41 14 -22 15 -28 4 -35 -8 -5 -17 -9 -20 -9 -12 0 -39 74 -34
94 5 19 5 19 -5 3 -6 -9 -15 -15 -19 -12 -5 2 -16 -14 -26 -36 -13 -28 -21
-36 -27 -27 -6 10 -8 10 -8 -1 0 -11 -3 -11 -17 0 -11 10 -14 10 -9 2 4 -8 2
-13 -4 -13 -7 0 -9 7 -6 16 4 10 -1 25 -10 35 -16 17 -15 20 3 36 10 10 13 14
6 10 -19 -13 -34 2 -27 29 3 13 3 24 0 24 -3 0 -6 -4 -6 -10z m270 -429 c0
-11 3 -26 6 -35 4 -11 1 -16 -10 -16 -9 0 -16 5 -16 10 0 6 -4 10 -10 10 -5 0
-10 -6 -10 -14 0 -16 -80 -33 -99 -22 -5 4 -12 2 -16 -4 -9 -15 -25 -12 -25 5
0 8 -4 15 -10 15 -5 0 -10 -7 -10 -15 0 -31 -29 -14 -36 21 -8 45 10 69 32 40
12 -17 14 -18 14 -3 0 23 30 22 31 0 0 -14 2 -13 9 5 8 20 16 22 80 22 62 0
70 -2 70 -19z m218 -99 c3 -42 3 -42 -32 -42 -27 0 -36 4 -37 18 -1 15 -2 15
-6 1 -4 -16 -43 -29 -89 -29 -17 0 -24 7 -27 28 -4 24 -4 24 -6 -6 0 -22 -5
-32 -13 -29 -7 2 -12 10 -10 16 1 6 -2 11 -8 11 -5 0 -10 -7 -10 -15 0 -8 -7
-15 -15 -15 -8 0 -15 7 -15 16 0 11 -5 14 -16 10 -9 -3 -20 -6 -25 -6 -5 0 -9
-7 -9 -15 0 -8 -6 -15 -14 -15 -14 0 -30 66 -20 82 8 12 98 7 107 -6 5 -8 10
-7 16 3 10 16 22 18 125 25 37 3 71 7 74 11 14 14 27 -5 30 -43z"/>
</g>
</svg>
